<svg width="370" height="310" viewBox="0 0 370 310" fill="none" xmlns="http://www.w3.org/2000/svg">
<g clip-path="url(#clip0_8_553)">
<path d="M0.73864 1.60613L68.6464 84.1137C68.7418 89.2522 68.3253 103.387 58.6846 117.056C45.5001 135.743 25.1401 139.275 21.2638 139.87C-7.4138 118.625 -28.4811 103.483 -28.4811 103.483L0.73864 1.60613Z" fill="#143D01"/>
<path d="M32.6693 65.1038C32.6693 65.1038 88.792 116.835 104.489 121.575C120.187 126.314 139.067 131.465 146.56 159.709C154.054 187.944 146.499 201.482 146.499 201.482L47.9959 210.216C47.9959 210.216 18.833 178.714 34.2967 147.687C30.0522 141.542 0.303743 118.264 0.303743 118.264C0.303743 118.264 6.20602 75.449 32.6693 65.1038Z" fill="#EBB88B"/>
<path d="M128.181 226.589C141.176 226.615 144.204 210.632 146.503 205.387C127.932 202.441 122.159 206.031 122.159 206.031C122.159 206.031 115.13 222.592 128.181 226.589Z" fill="#EAAE87"/>
<path d="M100.745 229.022C113.741 229.048 118.15 211.541 120.448 206.304C101.876 203.358 95.6236 204.088 95.6236 204.088C95.6236 204.088 87.6862 225.023 100.745 229.022Z" fill="#EAAE87"/>
<path d="M78.799 223.283C91.7948 223.309 95.2957 210.177 97.5935 204.939C79.0221 201.993 72.7694 202.724 72.7694 202.724C72.7694 202.724 65.7463 219.294 78.799 223.283Z" fill="#EAAE87"/>
<path d="M60.3996 216.904C73.3954 216.93 76.8963 203.798 79.1941 198.56C60.6227 195.614 54.37 196.345 54.37 196.345C54.37 196.345 47.3408 212.905 60.3996 216.904Z" fill="#EAAE87"/>
<path d="M174.881 193.362L172.194 206.302C171.347 210.383 173.979 214.382 178.072 215.232C182.165 216.082 186.171 213.461 187.018 209.379L189.704 196.44C190.552 192.358 187.92 188.359 183.827 187.509C179.736 186.652 175.73 189.273 174.881 193.362Z" fill="#414042"/>
<path d="M190.818 191.118L185.925 214.69L189.553 215.443L194.446 191.872L190.818 191.118Z" fill="#6D6E71"/>
<path d="M194.138 193.353L189.858 213.969L200.775 216.235L205.055 195.619L194.138 193.353Z" fill="#A7A9AC"/>
<path d="M193.678 195.568L192.181 202.782L203.097 205.048L204.595 197.834L193.678 195.568Z" fill="#BCBEC0"/>
<path d="M335.885 241.941C336.292 239.982 337.897 232.25 338.304 230.291C346.045 193.001 322.008 156.478 284.616 148.715C247.224 140.953 210.635 164.89 202.894 202.18C202.487 204.14 200.882 211.871 200.475 213.831C192.734 251.121 216.771 287.644 254.163 295.406C291.555 303.169 328.144 279.232 335.885 241.941Z" fill="#808285"/>
<path opacity="0.5" d="M272.276 296.752L317.582 165.667C311.145 159.703 303.506 154.906 294.948 151.697L261.414 296.517C265.065 296.889 268.698 296.959 272.276 296.752ZM279.062 147.787C271.228 146.805 263.498 147.188 256.127 148.757L238 289.918C242.246 291.975 246.754 293.619 251.497 294.797L279.062 147.787Z" fill="#6D6E71"/>
<path d="M332.396 241.217C332.649 239.998 332.862 238.779 333.042 237.56C324.162 270.848 290.63 291.766 256.387 284.657C222.143 277.548 199.716 245.013 204.812 210.94C204.492 212.129 204.202 213.333 203.949 214.552C196.607 249.921 219.404 284.561 254.87 291.923C290.349 299.297 325.053 276.586 332.396 241.217Z" fill="#808285"/>
<path d="M206.142 212.037C199.306 244.964 221.805 277.478 256.394 284.658C290.984 291.839 324.565 270.968 331.401 238.041C338.236 205.114 315.737 172.6 281.148 165.42C246.559 158.239 212.977 179.11 206.142 212.037Z" fill="#8CA367"/>
<path opacity="0.4" d="M213.71 213.64C207.454 243.772 226.877 273.283 257.09 279.555C287.304 285.828 316.868 266.486 323.124 236.355C329.379 206.223 309.957 176.712 279.743 170.44C249.529 164.167 219.965 183.509 213.71 213.64Z" fill="url(#paint0_radial_8_553)"/>
<path d="M218.548 217.583C225.383 184.66 258.964 163.784 293.555 170.965C296.1 171.493 298.569 172.159 300.979 172.949C294.99 169.492 288.328 166.91 281.148 165.42C246.557 158.238 212.978 179.106 206.142 212.037C199.808 242.545 218.657 272.687 248.979 282.668C226.132 269.491 213.133 243.669 218.548 217.583Z" fill="#DEEAFD"/>
<path d="M335.885 241.941C343.626 204.651 319.589 168.128 282.197 160.366C244.805 152.603 208.217 176.541 200.475 213.831C192.734 251.121 216.771 287.644 254.163 295.406C291.555 303.169 328.144 279.232 335.885 241.941ZM203.957 214.553C211.299 179.185 246.002 156.481 281.467 163.844C316.933 171.207 339.73 205.847 332.388 241.215C325.045 276.584 290.343 299.288 254.878 291.925C219.418 284.572 196.614 249.922 203.957 214.553Z" fill="#BCBEC0"/>
<mask id="mask0_8_553" style="mask-type:luminance" maskUnits="userSpaceOnUse" x="199" y="158" width="139" height="139">
<path d="M335.885 241.941C343.626 204.651 319.589 168.128 282.197 160.366C244.805 152.603 208.217 176.541 200.475 213.831C192.734 251.121 216.771 287.644 254.163 295.406C291.555 303.169 328.144 279.232 335.885 241.941ZM203.957 214.553C211.299 179.185 246.002 156.481 281.467 163.844C316.933 171.207 339.73 205.847 332.388 241.215C325.045 276.584 290.343 299.288 254.878 291.925C219.418 284.572 196.614 249.922 203.957 214.553Z" fill="white"/>
</mask>
<g mask="url(#mask0_8_553)">
<path opacity="0.5" d="M262.816 296.02L324.563 171.809C318.94 165.072 311.98 159.337 303.908 155.07L252.072 294.401C255.652 295.233 259.238 295.76 262.816 296.02ZM288.654 149.167C281.01 147.194 273.291 146.589 265.779 147.203L229.694 284.87C233.637 287.451 237.909 289.658 242.463 291.432L288.654 149.167Z" fill="#6D6E71"/>
</g>
<path d="M297.166 274.507C287.57 279.291 277.062 277.738 273.7 271.036C270.338 264.334 275.386 255.024 284.982 250.239C294.578 245.455 305.086 247.008 308.448 253.71C311.812 260.405 306.762 269.722 297.166 274.507Z" fill="white"/>
<path d="M10.4296 165.935C8.34251 175.989 13.1089 185.372 20.9349 186.627L176.011 211.36L180.408 190.18L28.3014 151.142C20.6244 149.17 12.5167 155.881 10.4296 165.935Z" fill="#414042"/>
<path opacity="0.4" d="M27.5774 154.63L176.699 191.599C178.366 190.335 180.771 189.789 183.255 190.304C187.348 191.154 190.101 194.567 189.403 197.931L188.733 201.156C189.43 197.799 186.678 194.379 182.585 193.529C180.102 193.014 177.696 193.561 176.03 194.824L26.9078 157.855C19.7238 156.074 12.44 160.566 10.1078 167.912C10.1642 167.369 10.2438 166.83 10.3575 166.282C12.0746 158.011 19.886 152.727 27.5774 154.63Z" fill="#5C5D60"/>
<path d="M172.77 210.84L177.221 189.398" stroke="#5C5D60" stroke-width="0.5669" stroke-miterlimit="10"/>
<path d="M6.30696 115.703C6.30696 115.703 26.2923 139.594 30.1843 147.437C34.0764 155.279 49.0213 161.737 57.0967 156.814C72.0303 170.908 90.6803 168.188 93.3179 166.096C108.501 181.127 122.151 198.255 141.976 202.588C161.808 206.922 163.387 185.479 151.788 179.772C140.182 174.063 129.724 161.775 117.691 150.697" fill="#EBB88B"/>
<path d="M151.788 179.772C140.182 174.063 129.724 161.775 117.691 150.697" stroke="#414042" stroke-width="0.5669" stroke-miterlimit="10"/>
<path d="M67.2224 207.713C67.2224 207.713 67.2753 189.148 51.948 188.808C36.6207 188.467 40.4378 206.7 48.3584 212.513C56.2713 218.325 63.9884 217.11 66.5466 215.75" fill="#EBB88B"/>
<path d="M65.9946 200.255C63.9629 195.93 60.1601 191.856 53.058 191.702C43.0805 191.482 41.2189 199.127 43.3147 206.098C39.7399 198.555 40.5621 188.569 51.9464 188.815C60.6319 189.001 64.3795 195.05 65.9946 200.255Z" fill="#EAB088"/>
<path d="M44.8377 198.8C44.8377 198.8 54.6405 201.028 58.4288 196.503C62.1496 207.891 47.9959 210.216 44.8377 198.8Z" stroke="#F1F2F2" stroke-width="0.5669" stroke-miterlimit="10"/>
<path d="M88.3844 212.524C88.3844 212.524 89.0924 190.804 73.6642 190.95C58.236 191.095 61.4396 212.283 69.2128 218.806C76.9861 225.329 82.4324 223.78 85.0656 222.097" fill="#EBB88B"/>
<path d="M87.4129 203.832C85.519 198.843 81.8314 194.215 74.683 194.284C64.6398 194.38 62.4962 203.384 64.3614 211.465C61.0252 202.772 62.2062 191.058 73.6642 190.95C82.4058 190.865 85.9692 197.802 87.4129 203.832Z" fill="#EAB088"/>
<path d="M66.1503 202.887C66.1503 202.887 75.9467 205.146 79.9224 199.718C83.2606 212.91 69.1873 214.342 66.1503 202.887Z" stroke="#F1F2F2" stroke-width="0.5669" stroke-miterlimit="10"/>
<path d="M111.665 213.583C111.665 213.583 112.366 190.614 96.5798 191.474C77.1368 192.532 86.74 219.435 94.7059 226.119C102.672 232.802 108.11 227.871 110.741 224.683" fill="#EBB88B"/>
<path d="M110.664 204.683C108.723 199.572 104.946 194.828 97.6212 194.893C87.3363 194.987 85.1292 204.219 87.0427 212.496C83.6305 203.586 84.8398 191.58 96.5721 191.472C105.538 191.394 109.187 198.501 110.664 204.683Z" fill="#EAB088"/>
<path d="M88.8826 203.711C88.8826 203.711 98.9188 206.019 102.993 200.467C106.417 213.982 93.1169 219.583 88.8826 203.711Z" stroke="#F1F2F2" stroke-width="0.5669" stroke-miterlimit="10"/>
<path d="M138.079 216.072C138.079 216.072 138.136 194.531 120.358 194.14C102.58 193.749 107.009 214.902 116.19 221.645C125.378 228.389 130.344 226.78 133.311 225.199" fill="#EBB88B"/>
<path d="M136.656 207.415C134.301 202.395 129.89 197.672 121.648 197.49C110.071 197.236 107.915 206.108 110.344 214.194C106.196 205.446 107.15 193.853 120.356 194.148C130.432 194.364 134.779 201.375 136.656 207.415Z" fill="#EAB088"/>
<path d="M112.109 205.731C112.109 205.731 123.485 208.31 127.883 203.066C132.192 216.283 113.369 217.116 112.109 205.731Z" stroke="#F1F2F2" stroke-width="0.5669" stroke-miterlimit="10"/>
<path d="M139.352 194.429C139.352 194.429 148.563 185.122 148.049 179.084C166.21 186.146 154.679 206.625 139.352 194.429Z" stroke="#F1F2F2" stroke-width="0.5669" stroke-miterlimit="10"/>
<path d="M87.5954 158.091C87.5954 158.091 91.516 166.068 105.683 178.957" stroke="#414042" stroke-width="0.5669" stroke-miterlimit="10"/>
<path d="M51.0328 150.726C51.0328 150.726 58.7516 162.099 73.036 166.336" stroke="#414042" stroke-width="0.5669" stroke-miterlimit="10"/>
<path d="M121.816 178.604C121.816 178.604 128.949 180.745 131.4 168.94" stroke="#414042" stroke-width="0.5669" stroke-miterlimit="10"/>
<path d="M124.709 174.231C124.709 174.231 125.115 170.758 129.52 168.549" stroke="#414042" stroke-width="0.5669" stroke-miterlimit="10"/>
<path d="M119.833 174.24C119.833 174.24 121.633 166.695 126.388 166.145" stroke="#414042" stroke-width="0.5669" stroke-miterlimit="10"/>
<path d="M111.783 216.786C111.783 216.786 105.836 209.049 108.908 200.004" stroke="#414042" stroke-width="0.5669" stroke-miterlimit="10"/>
<path d="M89.5892 218.577C85.1927 212.699 83.7209 203.733 86.3801 197.066" stroke="#414042" stroke-width="0.5669" stroke-miterlimit="10"/>
<path d="M65.2647 213.528C62.8054 207.375 61.001 200.168 64.5259 195.628" stroke="#414042" stroke-width="0.5669" stroke-miterlimit="10"/>
<path d="M41.5077 199.719C41.5077 199.719 41.1189 192.845 44.89 190.618" stroke="#414042" stroke-width="0.5669" stroke-miterlimit="10"/>
<path d="M0.738635 1.60614L68.6464 84.1137C68.6464 84.1137 26.0706 105.054 21.2638 139.87C-7.41381 118.625 -28.4811 103.483 -28.4811 103.483L0.738635 1.60614Z" fill="#143D01"/>
<path d="M59.5341 73.039C59.5341 73.039 18.9215 89.1872 11.1401 132.384" stroke="#414042" stroke-width="0.5669" stroke-miterlimit="10"/>
<path d="M135.842 205.153C135.842 205.153 139.413 213.573 137.578 218.447" stroke="#414042" stroke-width="0.5669" stroke-miterlimit="10"/>
<path d="M90.3352 167.207C90.3352 167.207 81.5324 166.732 75.123 156.283" stroke="#414042" stroke-width="0.5669" stroke-miterlimit="10"/>
<path d="M134.386 161.205C134.386 161.205 134.041 163.218 132.442 164.931" stroke="#414042" stroke-width="0.5669" stroke-miterlimit="10"/>
<path d="M139.57 162.821C139.57 162.821 137.754 167.45 135.827 168.104" stroke="#414042" stroke-width="0.5669" stroke-miterlimit="10"/>
</g>
<defs>
<radialGradient id="paint0_radial_8_553" cx="0" cy="0" r="1" gradientUnits="userSpaceOnUse" gradientTransform="translate(268.417 224.997) rotate(101.728) scale(55.7186 55.8709)">
<stop stop-color="white"/>
<stop offset="1" stop-color="#ABE1FA"/>
</radialGradient>
<clipPath id="clip0_8_553">
<rect width="236.155" height="384.903" fill="white" transform="translate(369.87 78.2369) rotate(101.728)"/>
</clipPath>
</defs>
</svg>
