<svg width="41" height="41" viewBox="0 0 41 41" fill="none" xmlns="http://www.w3.org/2000/svg">
<path d="M15.375 3.41675C10.8992 3.41675 7.26044 7.0555 7.26044 11.5313C7.26044 15.9217 10.6942 19.4751 15.17 19.6288C15.3067 19.6117 15.4434 19.6117 15.5459 19.6288C15.58 19.6288 15.5971 19.6288 15.6313 19.6288C15.6484 19.6288 15.6484 19.6288 15.6654 19.6288C20.0388 19.4751 23.4725 15.9217 23.4896 11.5313C23.4896 7.0555 19.8509 3.41675 15.375 3.41675Z" fill="#0B2901"/>
<path d="M24.0533 24.1729C19.2871 20.9954 11.5142 20.9954 6.71374 24.1729C4.54416 25.625 3.34833 27.5896 3.34833 29.6908C3.34833 31.7921 4.54416 33.7396 6.69666 35.1746C9.08833 36.7804 12.2317 37.5833 15.375 37.5833C18.5183 37.5833 21.6617 36.7804 24.0533 35.1746C26.2058 33.7225 27.4017 31.775 27.4017 29.6567C27.3846 27.5554 26.2058 25.6079 24.0533 24.1729Z" fill="#0B2901"/>
<path d="M34.1496 12.5392C34.4229 15.8533 32.0654 18.7575 28.8025 19.1504C28.7854 19.1504 28.7854 19.1504 28.7683 19.1504H28.7171C28.6146 19.1504 28.5121 19.1504 28.4266 19.1846C26.7696 19.27 25.2491 18.7404 24.1046 17.7667C25.8641 16.195 26.8721 13.8375 26.6671 11.275C26.5475 9.89126 26.0691 8.62709 25.3516 7.55084C26.0008 7.22626 26.7525 7.02126 27.5212 6.95292C30.8696 6.66251 33.8591 9.15667 34.1496 12.5392Z" fill="#0B2901"/>
<path d="M37.5663 28.3413C37.4296 29.9984 36.3704 31.4334 34.5938 32.4071C32.8854 33.3467 30.7329 33.7909 28.5975 33.7396C29.8275 32.6292 30.545 31.2454 30.6817 29.7763C30.8525 27.6579 29.8446 25.625 27.8288 24.0021C26.6842 23.0967 25.3517 22.3792 23.8996 21.8496C27.675 20.7563 32.4242 21.4909 35.3454 23.8484C36.9171 25.1125 37.72 26.7013 37.5663 28.3413Z" fill="#0B2901"/>
</svg>
