<svg width="16" height="16" viewBox="0 0 16 16" fill="none" xmlns="http://www.w3.org/2000/svg">
<g clip-path="url(#clip0_321_722)">
<path d="M12 5.33325C12 4.27239 11.5786 3.25497 10.8284 2.50482C10.0783 1.75468 9.06087 1.33325 8 1.33325C6.93913 1.33325 5.92172 1.75468 5.17157 2.50482C4.42143 3.25497 4 4.27239 4 5.33325C4 9.99992 2 11.3333 2 11.3333H14C14 11.3333 12 9.99992 12 5.33325Z" stroke="#180E19" stroke-width="1.5" stroke-linecap="round" stroke-linejoin="round"/>
<path d="M9.15333 14C9.03613 14.2021 8.8679 14.3698 8.66549 14.4864C8.46307 14.6029 8.23359 14.6643 8 14.6643C7.76642 14.6643 7.53693 14.6029 7.33452 14.4864C7.13211 14.3698 6.96388 14.2021 6.84667 14" stroke="#180E19" stroke-width="1.5" stroke-linecap="round" stroke-linejoin="round"/>
</g>
<defs>
<clipPath id="clip0_321_722">
<rect width="16" height="16" fill="white"/>
</clipPath>
</defs>
</svg>
