<svg width="25" height="24" viewBox="0 0 25 24" fill="none" xmlns="http://www.w3.org/2000/svg">
<path d="M12.5 6.43945V9.76945" stroke="#404038" stroke-width="1.5" stroke-miterlimit="10" stroke-linecap="round"/>
<path d="M12.52 2C8.84002 2 5.86002 4.98 5.86002 8.66V10.76C5.86002 11.44 5.58002 12.46 5.23002 13.04L3.96002 15.16C3.18002 16.47 3.72002 17.93 5.16002 18.41C9.94002 20 15.11 20 19.89 18.41C21.24 17.96 21.82 16.38 21.09 15.16L19.82 13.04C19.47 12.46 19.19 11.43 19.19 10.76V8.66C19.18 5 16.18 2 12.52 2Z" stroke="#404038" stroke-width="1.5" stroke-miterlimit="10" stroke-linecap="round"/>
<path d="M15.83 18.8203C15.83 20.6503 14.33 22.1503 12.5 22.1503C11.59 22.1503 10.75 21.7703 10.15 21.1703C9.54998 20.5703 9.16998 19.7303 9.16998 18.8203" stroke="#404038" stroke-width="1.5" stroke-miterlimit="10"/>
</svg>
