<svg width="30" height="30" viewBox="0 0 30 30" fill="none" xmlns="http://www.w3.org/2000/svg">
<path d="M26.325 14.775L26.125 14.5C25.775 14.075 25.3625 13.7375 24.8875 13.4875C24.25 13.125 23.525 12.9375 22.775 12.9375H7.2125C6.4625 12.9375 5.75 13.125 5.1 13.4875C4.6125 13.75 4.175 14.1125 3.8125 14.5625C3.1 15.475 2.7625 16.6 2.875 17.725L3.3375 23.5625C3.5 25.325 3.7125 27.5 7.675 27.5H22.325C26.2875 27.5 26.4875 25.325 26.6625 23.55L27.125 17.7375C27.2375 16.6875 26.9625 15.6375 26.325 14.775ZM17.9875 21.675H12C11.5125 21.675 11.125 21.275 11.125 20.8C11.125 20.325 11.5125 19.925 12 19.925H17.9875C18.475 19.925 18.8625 20.325 18.8625 20.8C18.8625 21.2875 18.475 21.675 17.9875 21.675Z" fill="url(#paint0_linear_185_281)"/>
<path d="M25.7203 10.9593C25.7509 11.3427 25.3372 11.5994 24.977 11.4642C24.2858 11.2047 23.5529 11.075 22.7875 11.075H7.21248C6.44363 11.075 5.68787 11.2125 4.99256 11.4731C4.63658 11.6066 4.22498 11.3601 4.22498 10.9799V8.325C4.22498 3.8625 5.58748 2.5 10.05 2.5H11.525C13.3125 2.5 13.875 3.075 14.6 4.0125L16.1 6.0125C16.4125 6.4375 16.425 6.4625 16.975 6.4625H19.95C23.9418 6.4625 25.4489 7.55495 25.7203 10.9593Z" fill="url(#paint1_linear_185_281)"/>
<defs>
<linearGradient id="paint0_linear_185_281" x1="2.85376" y1="20.2188" x2="27.1496" y2="20.2188" gradientUnits="userSpaceOnUse">
<stop stop-color="#143D01"/>
<stop offset="1" stop-color="#2F5E1A"/>
</linearGradient>
<linearGradient id="paint1_linear_185_281" x1="4.22498" y1="7.1625" x2="25.7625" y2="7.1625" gradientUnits="userSpaceOnUse">
<stop stop-color="#143D01"/>
<stop offset="1" stop-color="#2F5E1A"/>
</linearGradient>
</defs>
</svg>
