<svg width="30" height="31" viewBox="0 0 30 31" fill="none" xmlns="http://www.w3.org/2000/svg">
<path d="M20.9375 4.78805V2.81948C20.9375 2.30209 20.5125 1.87305 20 1.87305C19.4875 1.87305 19.0625 2.30209 19.0625 2.81948V4.71233H10.9375V2.81948C10.9375 2.30209 10.5125 1.87305 9.99998 1.87305C9.48748 1.87305 9.06248 2.30209 9.06248 2.81948V4.78805C5.68748 5.10352 4.04998 7.13519 3.79998 10.1511C3.77498 10.5171 4.07498 10.82 4.42498 10.82H25.575C25.9375 10.82 26.2375 10.5045 26.2 10.1511C25.95 7.13519 24.3125 5.10352 20.9375 4.78805Z" fill="url(#paint0_linear_1132_4247)"/>
<path d="M23.75 19.2227C20.9875 19.2227 18.75 21.4815 18.75 24.2703C18.75 25.2167 19.0125 26.1127 19.475 26.8698C20.3375 28.3336 21.925 29.3179 23.75 29.3179C25.575 29.3179 27.1625 28.3336 28.025 26.8698C28.4875 26.1127 28.75 25.2167 28.75 24.2703C28.75 21.4815 26.5125 19.2227 23.75 19.2227ZM26.3375 23.7277L23.675 26.2136C23.5 26.3777 23.2625 26.466 23.0375 26.466C22.8 26.466 22.5625 26.3777 22.375 26.1884L21.1375 24.9391C20.775 24.5731 20.775 23.9674 21.1375 23.6015C21.5 23.2355 22.1 23.2355 22.4625 23.6015L23.0625 24.2072L25.0625 22.3396C25.4375 21.9862 26.0375 22.0115 26.3875 22.39C26.7375 22.7686 26.7125 23.3617 26.3375 23.7277Z" fill="url(#paint1_linear_1132_4247)"/>
<path d="M25 12.7129H5C4.3125 12.7129 3.75 13.2807 3.75 13.9748V21.7481C3.75 25.5338 5.625 28.0577 10 28.0577H16.1625C17.025 28.0577 17.625 27.2122 17.35 26.3919C17.1 25.66 16.8875 24.8524 16.8875 24.2719C16.8875 20.4484 19.975 17.3315 23.7625 17.3315C24.125 17.3315 24.4875 17.3567 24.8375 17.4198C25.5875 17.5334 26.2625 16.9403 26.2625 16.1831V13.9874C26.25 13.2807 25.6875 12.7129 25 12.7129ZM11.5125 23.275C11.275 23.5022 10.95 23.641 10.625 23.641C10.3 23.641 9.975 23.5022 9.7375 23.275C9.5125 23.0353 9.375 22.7072 9.375 22.3791C9.375 22.051 9.5125 21.7229 9.7375 21.4831C9.8625 21.3696 9.9875 21.2812 10.15 21.2181C10.6125 21.0162 11.1625 21.1298 11.5125 21.4831C11.7375 21.7229 11.875 22.051 11.875 22.3791C11.875 22.7072 11.7375 23.0353 11.5125 23.275ZM11.5125 18.8584C11.45 18.9088 11.3875 18.9593 11.325 19.0098C11.25 19.0603 11.175 19.0981 11.1 19.1234C11.025 19.1612 10.95 19.1865 10.875 19.1991C10.7875 19.2117 10.7 19.2243 10.625 19.2243C10.3 19.2243 9.975 19.0855 9.7375 18.8584C9.5125 18.6186 9.375 18.2905 9.375 17.9624C9.375 17.6343 9.5125 17.3062 9.7375 17.0665C10.025 16.7762 10.4625 16.6374 10.875 16.7257C10.95 16.7384 11.025 16.7636 11.1 16.8015C11.175 16.8267 11.25 16.8646 11.325 16.915C11.3875 16.9655 11.45 17.016 11.5125 17.0665C11.7375 17.3062 11.875 17.6343 11.875 17.9624C11.875 18.2905 11.7375 18.6186 11.5125 18.8584ZM15.8875 18.8584C15.65 19.0855 15.325 19.2243 15 19.2243C14.675 19.2243 14.35 19.0855 14.1125 18.8584C13.8875 18.6186 13.75 18.2905 13.75 17.9624C13.75 17.6343 13.8875 17.3062 14.1125 17.0665C14.5875 16.5996 15.425 16.5996 15.8875 17.0665C16.1125 17.3062 16.25 17.6343 16.25 17.9624C16.25 18.2905 16.1125 18.6186 15.8875 18.8584Z" fill="url(#paint2_linear_1132_4247)"/>
<defs>
<linearGradient id="paint0_linear_1132_4247" x1="3.79852" y1="6.3465" x2="26.2032" y2="6.3465" gradientUnits="userSpaceOnUse">
<stop stop-color="#505046"/>
<stop offset="1" stop-color="#505046"/>
</linearGradient>
<linearGradient id="paint1_linear_1132_4247" x1="18.75" y1="24.2703" x2="28.75" y2="24.2703" gradientUnits="userSpaceOnUse">
<stop stop-color="#505046"/>
<stop offset="1" stop-color="#505046"/>
</linearGradient>
<linearGradient id="paint2_linear_1132_4247" x1="3.75" y1="20.3853" x2="26.2625" y2="20.3853" gradientUnits="userSpaceOnUse">
<stop stop-color="#505046"/>
<stop offset="1" stop-color="#505046"/>
</linearGradient>
</defs>
</svg>
