<svg width="30" height="31" viewBox="0 0 30 31" fill="none" xmlns="http://www.w3.org/2000/svg">
<path d="M20.9375 4.78768V2.81911C20.9375 2.30173 20.5125 1.87268 20 1.87268C19.4875 1.87268 19.0625 2.30173 19.0625 2.81911V4.71197H10.9375V2.81911C10.9375 2.30173 10.5125 1.87268 10 1.87268C9.48754 1.87268 9.06254 2.30173 9.06254 2.81911V4.78768C5.68754 5.10316 4.05004 7.13482 3.80004 10.1508C3.77504 10.5167 4.07504 10.8196 4.42504 10.8196H25.575C25.9375 10.8196 26.2375 10.5041 26.2 10.1508C25.95 7.13482 24.3125 5.10316 20.9375 4.78768Z" fill="url(#paint0_linear_185_275)"/>
<path d="M23.75 19.2239C20.9875 19.2239 18.75 21.4827 18.75 24.2715C18.75 25.2179 19.0125 26.1139 19.475 26.871C20.3375 28.3348 21.925 29.3191 23.75 29.3191C25.575 29.3191 27.1625 28.3348 28.025 26.871C28.4875 26.1139 28.75 25.2179 28.75 24.2715C28.75 21.4827 26.5125 19.2239 23.75 19.2239ZM26.3375 23.7289L23.675 26.2148C23.5 26.3789 23.2625 26.4672 23.0375 26.4672C22.8 26.4672 22.5625 26.3789 22.375 26.1896L21.1375 24.9403C20.775 24.5744 20.775 23.9686 21.1375 23.6027C21.5 23.2367 22.1 23.2367 22.4625 23.6027L23.0625 24.2084L25.0625 22.3408C25.4375 21.9874 26.0375 22.0127 26.3875 22.3913C26.7375 22.7698 26.7125 23.3629 26.3375 23.7289Z" fill="url(#paint1_linear_185_275)"/>
<path d="M25 12.7124H5C4.3125 12.7124 3.75 13.2803 3.75 13.9743V21.7476C3.75 25.5334 5.625 28.0572 10 28.0572H16.1625C17.025 28.0572 17.625 27.2117 17.35 26.3914C17.1 25.6595 16.8875 24.8519 16.8875 24.2714C16.8875 20.4479 19.975 17.331 23.7625 17.331C24.125 17.331 24.4875 17.3562 24.8375 17.4193C25.5875 17.5329 26.2625 16.9398 26.2625 16.1826V13.9869C26.25 13.2803 25.6875 12.7124 25 12.7124ZM11.5125 23.2745C11.275 23.5017 10.95 23.6405 10.625 23.6405C10.3 23.6405 9.975 23.5017 9.7375 23.2745C9.5125 23.0348 9.375 22.7067 9.375 22.3786C9.375 22.0505 9.5125 21.7224 9.7375 21.4826C9.8625 21.3691 9.9875 21.2807 10.15 21.2176C10.6125 21.0157 11.1625 21.1293 11.5125 21.4826C11.7375 21.7224 11.875 22.0505 11.875 22.3786C11.875 22.7067 11.7375 23.0348 11.5125 23.2745ZM11.5125 18.8579C11.45 18.9084 11.3875 18.9588 11.325 19.0093C11.25 19.0598 11.175 19.0976 11.1 19.1229C11.025 19.1607 10.95 19.186 10.875 19.1986C10.7875 19.2112 10.7 19.2238 10.625 19.2238C10.3 19.2238 9.975 19.085 9.7375 18.8579C9.5125 18.6181 9.375 18.29 9.375 17.9619C9.375 17.6338 9.5125 17.3057 9.7375 17.066C10.025 16.7757 10.4625 16.6369 10.875 16.7253C10.95 16.7379 11.025 16.7631 11.1 16.801C11.175 16.8262 11.25 16.8641 11.325 16.9145C11.3875 16.965 11.45 17.0155 11.5125 17.066C11.7375 17.3057 11.875 17.6338 11.875 17.9619C11.875 18.29 11.7375 18.6181 11.5125 18.8579ZM15.8875 18.8579C15.65 19.085 15.325 19.2238 15 19.2238C14.675 19.2238 14.35 19.085 14.1125 18.8579C13.8875 18.6181 13.75 18.29 13.75 17.9619C13.75 17.6338 13.8875 17.3057 14.1125 17.066C14.5875 16.5991 15.425 16.5991 15.8875 17.066C16.1125 17.3057 16.25 17.6338 16.25 17.9619C16.25 18.29 16.1125 18.6181 15.8875 18.8579Z" fill="url(#paint2_linear_185_275)"/>
<defs>
<linearGradient id="paint0_linear_185_275" x1="3.79858" y1="6.34613" x2="26.2032" y2="6.34613" gradientUnits="userSpaceOnUse">
<stop stop-color="#143D01"/>
<stop offset="1" stop-color="#2F5E1A"/>
</linearGradient>
<linearGradient id="paint1_linear_185_275" x1="18.75" y1="24.2715" x2="28.75" y2="24.2715" gradientUnits="userSpaceOnUse">
<stop stop-color="#143D01"/>
<stop offset="1" stop-color="#2F5E1A"/>
</linearGradient>
<linearGradient id="paint2_linear_185_275" x1="3.75" y1="20.3848" x2="26.2625" y2="20.3848" gradientUnits="userSpaceOnUse">
<stop stop-color="#143D01"/>
<stop offset="1" stop-color="#2F5E1A"/>
</linearGradient>
</defs>
</svg>
