<svg width="435" height="262" viewBox="0 0 435 262" fill="none" xmlns="http://www.w3.org/2000/svg">
<path d="M329.32 208.812C329.32 77.0499 265.67 18.2303 184.662 32.3473C83.4017 49.9936 152.631 117.638 184.662 83.3258C216.693 49.0133 170.196 -13.7303 66.8693 27.4446" stroke="#BCF0C7" stroke-width="5" stroke-linecap="round" stroke-dasharray="10 10"/>
<path d="M4.35834 192.195V179.531L136.433 144.203L222.843 192.195C249.071 185.307 307.849 170.732 333.14 167.532C358.43 164.332 408.778 178.197 430.79 185.529L425.873 200.193C397.303 194.638 334.123 183.929 309.956 185.529C285.79 187.129 250.242 204.859 235.489 213.524H196.147C187.951 204.637 163.269 183.796 130.11 171.532C96.951 159.267 32.4593 180.197 4.35834 192.195Z" fill="#BCC29A"/>
<path d="M208 129.404C207.277 113.298 211.423 75.1395 218.969 55.8648C232.886 20.3146 252.136 8.56693 261.527 0L262.427 1.82323C257.548 5.15562 250.35 55.2407 242.495 104.038C262.494 91.2525 287.805 81.5263 307.786 86.6504C339.859 94.8752 356.431 115.417 366.182 125.355L364.041 129.891C382.167 136.376 396.327 144.235 393.163 143.416L434.076 187.648C394.708 182.508 327.113 167.447 279.392 181.454C246.33 191.158 232.078 204.413 228.466 208.183H206.745C189.769 191.734 167.952 158.837 121.196 158.837C77.006 158.837 30.9015 173.915 0.923706 181.454L54.0169 119.771C90.4959 112.231 176.794 104.73 208 129.404Z" fill="#1B5201"/>
<path d="M305.018 86.0537C277.338 79.4881 243.959 101.116 242.738 102.661C238.26 113.578 227.921 139.582 222.385 156.266C216.849 172.951 214.651 195.66 214.243 204.93H222.385C234.19 186.005 267.297 175.577 278.559 173.26L283.037 164.069C292.128 156.86 310.636 142.132 311.938 140.896C313.241 139.66 316.823 131.885 318.451 128.151C323.2 116.307 327.162 91.3063 305.018 86.0537Z" fill="#6B8534"/>
<path d="M214.073 73.3459C222.499 33.3711 249.351 7.83153 261.723 0.0585938L262.998 1.38939C258.368 18.9026 250.751 60.5804 248.048 77.393C245.345 94.2057 240.991 128.972 239.152 144.254C239.152 144.254 238.142 145.075 230.625 155.199C219.984 169.529 215.243 194.54 214.073 205.168L208.556 130.453C206.884 128.073 205.646 113.321 214.073 73.3459Z" fill="#BCC29A"/>
<path d="M345.629 167.809L366.133 125.256C359.66 118.651 355.607 107.17 330.959 95.3601C314.704 87.5718 313.755 87.9368 305.905 86.2344L278.25 173.334C282.646 172.755 295.694 165.897 329.374 165.897C334.839 165.897 342.282 166.853 345.629 167.809Z" fill="#BCC29A"/>
<rect width="11.5647" height="33.0683" transform="matrix(0.882047 0.471162 -0.510307 0.859992 147.821 159.059)" fill="#277D09" fill-opacity="0.79"/>
<rect width="17.2603" height="57.6668" rx="8.63015" transform="matrix(0.882047 0.471162 -0.510307 0.859992 128.865 183.926)" fill="#050938"/>
<g style="mix-blend-mode:multiply">
<ellipse cx="51.7998" cy="50.4076" rx="51.7998" ry="50.4076" transform="matrix(0.882047 0.471162 -0.510307 0.859992 155.185 55.0625)" fill="#277D09" fill-opacity="0.79"/>
</g>
<path d="M220.841 147.225C206.635 171.166 174.662 179.648 149.428 166.169C124.194 152.69 115.255 122.354 129.462 98.4126C143.668 74.471 175.641 65.9895 200.875 79.4686C226.109 92.9477 235.048 123.283 220.841 147.225ZM138.113 103.034C126.596 122.442 133.843 147.034 154.299 157.961C174.755 168.888 200.673 162.012 212.19 142.604C223.707 123.195 216.46 98.6036 196.004 87.6766C175.548 76.7497 149.629 83.6253 138.113 103.034Z" fill="#277D09" fill-opacity="0.79"/>
<path d="M161.825 109.836L189.189 135.8" stroke="#BCF0C7" stroke-width="18" stroke-linecap="round"/>
<path d="M189.189 109.836L161.824 135.8" stroke="#BCF0C7" stroke-width="18" stroke-linecap="round"/>
<path d="M55.9013 46.6566C55.5644 38.7146 53.6779 23.264 48.8267 24.9978C44.2316 26.6401 48.5432 38.7746 51.6833 45.5727L48.8267 50.6803L59.6071 48.2049C61.9653 43.1508 65.9405 32.9188 62.9759 32.4237C60.0113 31.9286 57.0243 41.706 55.9013 46.6566Z" fill="#050938"/>
</svg>
